<svg width="60" height="60" viewBox="0 0 60 60" fill="none" xmlns="http://www.w3.org/2000/svg">
<path d="M17.6979 26.3159C17.2227 26.2473 16.7397 26.3703 16.3553 26.6578C15.9708 26.9453 15.7163 27.3738 15.6477 27.8489C15.5791 28.3241 15.7021 28.807 15.9897 29.1915C16.2772 29.576 16.7056 29.8305 17.1808 29.8991C21.1644 30.4736 23.4342 32.7955 23.9278 36.7995C24.0817 37.9902 23.9984 39.1996 23.6826 40.3579C23.3392 41.6258 22.6951 42.7922 21.805 43.7581C20.9149 44.7241 19.805 45.4612 18.5694 45.9069C16.6706 46.6749 14.5646 46.762 12.609 46.1535C7.22392 44.4449 7.3649 38.1244 7.37463 37.7911C7.37463 27.2554 17.2732 12.8129 17.373 12.6679C17.6461 12.2731 17.7512 11.786 17.6651 11.3137C17.5791 10.8414 17.3089 10.4227 16.9141 10.1496C16.5193 9.87646 16.0321 9.77139 15.5598 9.85746C15.0876 9.94353 14.6688 10.2137 14.3957 10.6085C13.9613 11.2361 3.75433 26.1205 3.75561 37.7196C3.62745 40.9378 5.08405 47.5642 11.5147 49.6041C12.7142 49.9833 13.965 50.1756 15.223 50.1742C16.8297 50.1731 18.4216 49.866 19.9133 49.2691C21.6622 48.6152 23.2312 47.5562 24.4918 46.1788C25.7524 44.8015 26.6686 43.145 27.1655 41.3452C27.617 39.7233 27.7378 38.0271 27.5208 36.3575C27.3263 33.7956 26.2347 31.3844 24.4381 29.5477C22.6415 27.7111 20.2548 26.5667 17.6979 26.3159Z" fill="#5C32FF"/>
<path d="M56.1457 36.3575C55.9512 33.7956 54.8596 31.3844 53.063 29.5477C51.2664 27.7111 48.8797 26.5667 46.3228 26.3158C45.8476 26.2473 45.3646 26.3703 44.9802 26.6578C44.5957 26.9453 44.3412 27.3738 44.2726 27.8489C44.204 28.3241 44.327 28.807 44.6145 29.1915C44.9021 29.576 45.3305 29.8305 45.8057 29.8991C49.7893 30.4736 52.0591 32.7955 52.5527 36.7995C52.7065 37.9902 52.6233 39.1995 52.3079 40.3579C51.9645 41.6258 51.3204 42.7923 50.4302 43.7582C49.54 44.7242 48.43 45.4613 47.1943 45.9069C45.2955 46.6749 43.1895 46.762 41.2339 46.1534C35.8489 44.4449 35.9898 38.1243 35.9996 37.7911C35.9996 27.2554 45.8985 12.8129 45.9984 12.6679C46.1336 12.4724 46.229 12.2522 46.2791 12.0199C46.3292 11.7875 46.3331 11.5476 46.2905 11.3137C46.2478 11.0798 46.1596 10.8567 46.0307 10.6569C45.9019 10.4572 45.7349 10.2848 45.5394 10.1496C45.3439 10.0143 45.1237 9.91894 44.8914 9.86882C44.659 9.8187 44.419 9.81484 44.1852 9.85746C43.9513 9.90007 43.7282 9.98833 43.5284 10.1172C43.3287 10.2461 43.1563 10.413 43.021 10.6085C42.5866 11.2361 32.3792 26.1205 32.3806 37.7195C32.2524 40.9377 33.709 47.5641 40.1396 49.6041C41.3392 49.9832 42.5899 50.1755 43.8479 50.1742C45.4546 50.1731 47.0464 49.866 48.5382 49.2691C50.2872 48.6151 51.8564 47.556 53.1172 46.1785C54.3779 44.801 55.2943 43.1443 55.7912 41.3443C56.242 39.7225 56.3625 38.0268 56.1457 36.3575Z" fill="#5C32FF"/>
</svg>
